<svg version="1.2" xmlns="http://www.w3.org/2000/svg" viewBox="0 0 626 111" width="626" height="111">
	<title>更名后--AI-CCR-ai</title>
	<style>
		tspan { white-space:pre } 
		.s0 { fill: #e36e34 } 
		.s1 { fill: #3196b5 } 
		.s2 { fill: #545557 } 
		.t3 { font-size: 50px;fill: #495255;font-family: "Microsoft Ya Hei" } 
		.t4 { font-size: 18px;fill: #495255;font-family: "Microsoft Ya Hei" } 
	</style>
	<g id="4.R">
		<g id="R-part1">
			<g id="&lt;Group&gt;">
				<g id="&lt;Group&gt;">
					<path id="&lt;Compound Path&gt;" fill-rule="evenodd" class="s0" d="m108.5 58.7c-6.2 9.7-6.2 9.7-6.2 9.7q-3.8-6.6-7.6-13.3c-0.2-0.5-0.7-0.9-1.2-0.9-0.6 0-1.1 0.4-1.2 0.9l-12 20 8.4 14.3-6.5 9.8-8.1-13.8-16.8-28.7q10.9-18.1 21.8-36.3c0.1-0.1 1-1.7 3-1.8 1.3 0 2.5 0.7 3.2 1.8q5.1 8.6 10.2 17.2c0.5 0.6 2.3 3.1 2.1 6.6q0 0.7-0.2 1.4c0.4-0.2 1-0.3 1.6-0.3 1.1 0 1.9 0.6 2.2 0.8zm-19.7-13.4c0-1-0.4-1.7-0.6-2q-3-5-6-10.1c-0.2-0.8-1-1.4-1.8-1.3-0.7 0-1.3 0.5-1.5 1.3q-5.8 9.6-11.5 19.1l8.8 15.1 12-19.8c0.2-0.3 0.7-1.2 0.6-2.3z"/>
				</g>
			</g>
		</g>
		<g id="图层 9">
			<path id="&lt;Path&gt;" class="s1" d="m39 15.2l-16.6 30.3h25.1l17.4-30.3h10.2l-23.2 39.9h-45.9l22.8-39.9z"/>
			<path id="&lt;Path&gt;" class="s2" d="m57.3 68.5h-34.6l13.2 21.6h34.1l5.1 9.1h-45.7l-23.4-39.9h45.8z"/>
		</g>
	</g>
	<g id="图层 21">
	</g>
	<g id="文字">
		<text id="智能与计算传播专委会" style="transform: matrix(1,0,0,1,115.513,68.459)" >
			<tspan x="0" y="0" class="t3">智能</tspan><tspan  y="0" class="t3">与</tspan><tspan  y="0" class="t3">计算传播专委会
</tspan>
		</text>
		<text id="Intelligence &amp; Computational Com" style="transform: matrix(1,0,0,1,121.564,94.221)" >
			<tspan x="0" y="0" class="t4">I</tspan><tspan  y="0" class="t4">n</tspan><tspan  y="0" class="t4">t</tspan><tspan  y="0" class="t4">e</tspan><tspan  y="0" class="t4">l</tspan><tspan  y="0" class="t4">l</tspan><tspan  y="0" class="t4">i</tspan><tspan  y="0" class="t4">g</tspan><tspan  y="0" class="t4">e</tspan><tspan  y="0" class="t4">n</tspan><tspan  y="0" class="t4">c</tspan><tspan  y="0" class="t4">e</tspan><tspan  y="0" class="t4"> </tspan><tspan  y="0" class="t4">&amp;</tspan><tspan  y="0" class="t4"> </tspan><tspan  y="0" class="t4">Computational Communication Association</tspan><tspan  y="0" class="t4"> 
</tspan>
		</text>
	</g>
</svg>