<svg xmlns="http://www.w3.org/2000/svg" viewBox="0 0 580 84"><defs><style>.cls-1{fill:#e26c23;}.cls-2{fill:#2e95b8;}.cls-3,.cls-4,.cls-5{fill:#535353;}.cls-4{font-size:47.1px;}.cls-4,.cls-5{font-family:MicrosoftYaHei, Microsoft YaHei;}.cls-5{font-size:18.28px;}.cls-6{letter-spacing:-0.03em;}.cls-7{letter-spacing:-0.01em;}.cls-8{letter-spacing:0em;}</style></defs><title>AI-CCR</title><g id="_4.R" data-name="4.R"><path class="cls-1" d="M242.21,170.38a3.94,3.94,0,0,0-2.24-.79,3.83,3.83,0,0,0-1.54.28,9.6,9.6,0,0,0,.18-1.39,10,10,0,0,0-2.08-6.6l-10.22-17.17a3.63,3.63,0,0,0-3.26-1.79,3.81,3.81,0,0,0-2.95,1.79L198.26,181l16.83,28.67h0l8.14,13.87,6.52-9.88-8.49-14.26,12-19.95a1.25,1.25,0,0,1,2.43,0l7.65,13.24,6.18-9.64Zm-13,1.53-12,19.86-8.88-15.12,11.53-19.13a1.68,1.68,0,0,1,3.28,0l6,10.15a4,4,0,0,1,0,4.25Z" transform="translate(-147 -139.52)"/><g id="图层_9" data-name="图层 9"><polygon class="cls-2" points="32.97 0 16.42 30.3 41.51 30.3 58.86 0 69.14 0 45.92 39.91 0 39.91 22.82 0 32.97 0"/><polygon class="cls-3" points="51.26 53.26 16.68 53.26 29.9 74.88 64.02 74.88 69.14 84 23.36 84 0 44.05 45.78 44.05 51.26 53.26"/></g></g><g id="文字"><text class="cls-4" transform="translate(107.2 46.54)">计算传播学研究委员会</text><text class="cls-5" transform="translate(110.85 75.67)">Computational Communication <tspan class="cls-6" x="280.44" y="0">R</tspan><tspan x="291.82" y="0">esea</tspan><tspan class="cls-7" x="331.12" y="0">r</tspan><tspan class="cls-8" x="337.84" y="0">ch Association </tspan></text></g></svg>